<svg width="129" height="38" viewBox="0 0 129 38" fill="none" xmlns="http://www.w3.org/2000/svg">
<path fill-rule="evenodd" clip-rule="evenodd" d="M28.7678 36.8119C29.0276 36.7519 31.7513 35.4425 32.3859 35.1777C32.6858 35.0427 33.8052 34.468 34.0251 34.4231C33.9901 34.3081 32.1611 30.3401 31.9012 29.7704C31.8262 29.6255 31.7912 29.5055 31.7163 29.3456L25.4894 15.8823C25.1146 15.1327 24.295 13.2686 23.9252 12.514C23.5154 11.6944 22.9906 10.3901 22.5809 9.56051L21.6113 7.41658C21.5014 7.49654 21.2015 8.12623 21.1616 8.29614C21.0866 8.45606 21.0116 8.571 20.9367 8.73092L20.302 10.1102C20.227 10.2801 20.1521 10.4051 20.0771 10.57L18.3979 14.2532C18.3979 14.2981 18.5479 14.608 18.6228 14.7179L19.0326 15.6325C19.0676 15.7224 19.1076 15.7574 19.1426 15.8374C19.1776 15.9373 19.1776 15.9873 19.2175 16.0772L19.6673 16.9918C20.227 18.1462 20.7868 19.5255 21.3465 20.6799L22.0161 22.0842C22.1261 22.3941 22.316 22.6789 22.4259 22.9938L24.33 27.1117C24.7398 28.0113 25.1895 29.0058 25.5993 29.8703L28.5828 36.3371C28.6578 36.472 28.7328 36.6469 28.7678 36.8169V36.8119Z" fill="white"/>
<path fill-rule="evenodd" clip-rule="evenodd" d="M2.62085 30.1052C2.80576 30.0253 2.9207 29.9253 3.07063 29.8204L4.41495 28.9858C4.7148 28.8009 5.08462 28.6659 5.38447 28.481C5.60935 28.3211 7.13859 27.6614 7.39846 27.5565C8.40295 27.1567 9.7123 26.7319 10.7168 26.492C10.7518 26.3571 10.7918 26.2871 10.8667 26.1722C10.9017 26.0572 10.9417 25.9523 11.0166 25.8424C11.0516 25.7274 11.0916 25.6375 11.1666 25.5125C11.2016 25.3876 11.2765 25.2976 11.3165 25.1827L11.9112 23.8933C11.9462 23.7884 11.9862 23.7134 12.0611 23.5985L13.0706 21.3146C13.5554 20.3201 14.0751 19.1457 14.5649 18.1062C14.6748 17.8763 14.7498 17.6714 14.8647 17.4466L17.2135 12.2642C17.3235 12.0393 17.3984 11.8294 17.5134 11.6245L18.4079 9.67545C18.4829 9.47055 18.5928 9.26566 18.7078 9.05077L20.0521 6.11723C20.0871 6.01229 20.1621 5.92233 20.1621 5.7774H13.8602C13.7853 6.00729 13.6004 6.31214 13.5254 6.53203L11.9612 9.94532C11.8862 10.0802 11.8512 10.1952 11.7763 10.3451L11.0666 11.8594C10.6168 12.7289 10.0971 14.0283 9.64733 14.9028L8.78776 16.7969C8.303 17.7664 7.7083 19.2407 7.18357 20.2102C6.88372 20.8698 6.47392 21.8194 6.13909 22.504L5.09461 24.7729C4.98467 25.0378 4.86972 25.2876 4.75978 25.5475C4.31 26.4121 3.79027 27.7264 3.34049 28.591C3.26553 28.7259 3.23055 28.8209 3.15558 28.9658L2.82075 29.7154C2.74579 29.8553 2.67083 29.9803 2.63584 30.1152L2.62085 30.1052Z" fill="white"/>
<path fill-rule="evenodd" clip-rule="evenodd" d="M0.307129 34.6479C0.492036 34.6679 1.68644 35.2776 1.98629 35.4026C2.09623 35.4575 2.21118 35.4925 2.32112 35.5625C2.47105 35.6225 2.54601 35.6624 2.65595 35.7124L5.71442 37.1417C5.7494 37.0967 6.08923 36.6519 6.64895 36.2322C7.31862 35.7324 7.91832 35.3626 8.62796 34.9978C8.73791 34.9378 8.81287 34.8928 8.92781 34.8279L10.2322 34.2781C11.9863 33.5735 14.485 33.1137 16.459 33.1137C17.8383 33.1137 18.3981 33.1237 19.7774 33.2836C21.5315 33.4785 23.7304 34.1382 25.2996 34.9178C25.4096 34.9778 25.5995 35.0977 25.7494 35.1227C25.4495 34.598 25.0397 33.5485 24.7399 32.9538L24.3301 32.0742C24.2202 31.9143 24.1802 31.7894 24.1052 31.6295C23.9553 31.3346 23.8453 31.0697 23.6954 30.7749C23.5455 30.4301 22.501 28.2761 22.501 28.1162C20.8219 27.7314 18.508 27.4665 16.7189 27.4665C12.9158 27.4665 9.63246 28.3911 7.09873 29.6554C6.9488 29.7354 6.79888 29.8154 6.64895 29.8953L6.12921 30.1602C5.97929 30.2501 5.82936 30.3201 5.67944 30.4101C4.63496 31.0148 3.10573 32.0742 2.24616 32.8488C1.91133 33.1237 0.382091 34.4331 0.307129 34.6429V34.6479Z" fill="white"/>
<path fill-rule="evenodd" clip-rule="evenodd" d="M13.5505 24.7079C13.5505 25.2427 14.0003 25.6674 14.4101 25.6674C14.7449 25.6674 15.0448 25.5975 15.3796 25.5975C16.4241 25.5975 17.0188 25.4825 18.2532 25.6524L19.7474 25.8374C20.2672 25.8374 20.7169 25.4975 20.9418 25.0827C21.2767 24.2981 20.7569 23.6335 20.3471 22.7189L18.518 18.7159C18.4081 18.521 18.4081 18.4561 18.2932 18.2911C17.7734 17.5865 16.654 17.5815 16.2042 18.6759L13.7055 24.1782C13.6305 24.3281 13.5555 24.498 13.5555 24.7129L13.5505 24.7079Z" fill="white"/>
<path fill-rule="evenodd" clip-rule="evenodd" d="M75.0746 14.1932C75.0746 13.5235 75.1496 13.0038 75.3695 12.3941C75.4445 12.1292 75.5544 11.8993 75.7043 11.6794C76.7388 9.94532 79.0277 9.31063 80.8767 10.1802C82.391 10.9098 83.2805 12.4341 83.2805 14.1532C83.2805 15.9323 82.4659 17.2017 81.0267 18.0463C79.9572 18.656 78.368 18.626 77.2585 18.0812C76.9987 17.9563 76.8537 17.8713 76.6289 17.6914L76.369 17.4616C75.9242 17.0568 75.5544 16.492 75.3345 15.9273C75.1846 15.4226 75.0746 14.7279 75.0746 14.1832V14.1932ZM78.288 21.8843C80.0621 21.8843 81.4265 21.5945 82.8307 20.65L83.2755 20.3251V21.4446H87.1536V6.88185H83.2755V8.03627C82.9807 7.82638 82.9407 7.74642 82.426 7.42158C81.4265 6.83187 80.0621 6.44207 78.8427 6.44207H78.1781C76.8088 6.44207 75.1496 7.13172 74.1901 7.95631C74.1151 8.03627 74.0402 8.08125 73.9702 8.16121L73.4904 8.60099C73.2306 8.85586 72.6758 9.5805 72.4909 9.88535C71.7863 11.0398 71.3465 12.3691 71.3465 13.7534C71.3465 13.9633 71.3115 14.0083 71.3115 14.1932L71.3465 15.0578C71.4964 16.1072 71.4964 16.2721 71.8662 17.2766C72.1611 18.0163 72.7908 19.0208 73.3055 19.5255L73.6354 19.8603C74.34 20.52 74.4499 20.635 75.3345 21.1297C75.4095 21.1647 75.4095 21.1747 75.4844 21.1997C75.8892 21.3946 76.2241 21.5145 76.6688 21.6495C77.0736 21.7794 77.7383 21.8893 78.293 21.8893L78.288 21.8843Z" fill="white"/>
<path fill-rule="evenodd" clip-rule="evenodd" d="M47.8832 18.496C47.0686 18.496 46.5139 18.496 45.7793 18.1162C45.3345 17.8863 45.2995 17.8364 44.9297 17.5415C44.7448 17.3816 44.5949 17.2417 44.4499 17.0468C44.375 16.9568 44.3 16.8619 44.265 16.7669C43.3055 15.3376 43.3405 12.9438 44.3 11.4795C44.8547 10.67 45.8542 10.0153 46.8487 9.86536C47.7733 9.72543 48.5879 9.81038 49.4375 10.2352C50.7668 10.8948 51.7663 12.3391 51.7663 14.0932C51.7663 15.4576 51.3615 16.4371 50.6219 17.1767C49.9172 17.8913 48.9977 18.491 47.8882 18.491L47.8832 18.496ZM39.8273 13.7584C39.8273 15.5925 39.9372 16.567 40.7518 18.1112C41.2316 19.0208 41.8213 19.6155 42.5609 20.2851C43.6304 21.2297 45.2945 21.8893 46.7338 21.8893C47.9882 21.8893 48.7278 21.8094 49.8023 21.4246C50.1721 21.2996 50.5419 21.1247 50.8368 20.9398C51.3915 20.63 51.3565 20.615 51.7613 20.3301V21.4496H55.6393V6.88685H51.7613V8.00629L50.8767 7.40659C49.3975 6.60699 48.438 6.44707 46.6638 6.44707C45.8143 6.44707 44.5949 6.7719 43.8552 7.1867C43.1906 7.56651 43.1156 7.65146 42.5609 8.07625L41.4515 9.20569C41.0467 9.74042 40.7518 10.2102 40.452 10.8549C40.1171 11.5945 39.8223 12.7039 39.8223 13.7634L39.8273 13.7584Z" fill="white"/>
<path fill-rule="evenodd" clip-rule="evenodd" d="M115.944 26.4221H120.232L128.548 7.15672C128.623 7.06176 128.658 6.94682 128.698 6.84687H124.375C124.375 6.97181 124.19 7.30664 124.155 7.43658C124.045 7.63148 123.97 7.82638 123.895 8.00129L121.382 13.7734C121.232 14.1682 121.087 14.523 120.902 14.9278C120.827 15.1227 120.752 15.3076 120.642 15.5025C120.567 15.6525 120.457 15.9423 120.422 16.0922L119.647 14.3581C119.537 14.1632 119.462 13.9883 119.388 13.7834C119.238 13.3786 119.093 13.0338 118.943 12.629C118.313 11.1247 117.648 9.55552 117.024 8.03128L116.544 6.85187H112.256C112.256 6.97681 113.216 9.17071 113.291 9.32063C113.625 10.1402 113.955 10.9348 114.325 11.7594C115.579 14.6829 116.839 17.6964 118.093 20.605C118.313 21.0648 118.313 20.8848 118.018 21.5145L116.209 25.8074C116.099 25.9923 115.989 26.2472 115.949 26.4321L115.944 26.4221Z" fill="white"/>
<path fill-rule="evenodd" clip-rule="evenodd" d="M89.1177 21.4446H93.7004L96.8788 16.8369C96.9138 16.9768 97.6934 18.0712 97.8383 18.2711C98.543 19.3106 99.3176 20.3951 100.017 21.4446H104.635L99.7224 14.3331C99.7973 14.2731 99.9423 14.0183 100.017 13.8933L104.005 7.7864C104.225 7.47155 104.41 7.16171 104.635 6.84187H100.017L99.6124 7.44157C99.5025 7.65147 99.3526 7.84637 99.2426 8.05626L97.0637 11.4196C96.9887 11.5245 96.9138 11.6595 96.8438 11.7194L96.0692 10.495C95.9942 10.4001 95.9593 10.3201 95.8843 10.2052L94.6999 8.3711C94.6249 8.25616 94.55 8.1762 94.48 8.06126C94.3701 7.85136 94.2601 7.68145 94.1102 7.46156C93.9603 7.24167 93.8503 7.06676 93.7054 6.83687H89.1227C89.3426 7.26166 91.7464 10.9048 92.1162 11.4246L93.9253 14.1932C94.0352 14.3781 94.0002 14.3631 93.7753 14.658L93.1457 15.5575C92.5909 16.4371 91.8913 17.3816 91.2966 18.2612C90.8918 18.8609 89.2626 21.1347 89.1177 21.4346V21.4446Z" fill="white"/>
<path fill-rule="evenodd" clip-rule="evenodd" d="M57.5984 11.1447C57.5984 12.2092 57.9282 13.2337 58.6679 13.9383C58.9627 14.2132 59.3675 14.518 59.7024 14.7029C59.9222 14.8179 60.0722 14.8978 60.332 15.0028C61.8863 15.5925 64.6199 15.8773 65.4695 16.2721C67.0587 17.0218 66.1741 18.7659 64.2501 18.7659C63.1806 18.7659 62.331 18.7109 61.5914 18.0163L61.5564 17.9813C61.5564 17.9813 61.5564 17.9713 61.5564 17.9613C61.2966 17.6864 61.0367 17.2117 61.0367 16.7969C60.8518 16.7969 57.2336 17.5565 57.1187 17.5815C57.1536 17.8614 57.2686 18.3811 57.3385 18.621C57.7084 19.5555 58.2981 20.2601 59.1476 20.7799C60.1821 21.3896 61.7363 21.8793 63.3605 21.8793C64.7298 21.8793 65.8343 21.8094 67.0537 21.3246C67.9382 20.9648 68.6079 20.505 69.1576 19.8204C69.4525 19.4955 69.6374 19.0957 69.7873 18.656C69.9722 18.1812 70.0472 17.6964 70.0822 17.0967L70.0072 16.2971C69.9722 16.0323 69.8973 15.7974 69.8223 15.5725C69.6374 15.1327 69.4175 14.7629 69.1226 14.4381C68.0882 13.2587 66.9038 13.0538 65.4645 12.7089C64.9497 12.584 62.9507 12.1892 62.511 12.0493C62.1062 11.9093 61.6264 11.6994 61.5115 11.2297C61.2166 10.2252 62.1012 9.48555 63.2856 9.48555C64.2451 9.48555 65.3195 9.70544 65.8743 10.605C66.0242 10.8149 66.1691 11.1597 66.1691 11.4845C66.429 11.4845 66.8688 11.3596 67.0937 11.3146L69.8673 10.7699C69.8673 10.505 69.6824 10.0053 69.6074 9.79039C69.4575 9.47055 69.3475 9.24567 69.1626 8.96081C68.0532 7.33162 65.8743 6.43208 63.9552 6.43208C62.8108 6.43208 62.0712 6.43207 61.0017 6.79189C59.1926 7.39159 57.6034 8.92583 57.6034 11.1347L57.5984 11.1447Z" fill="white"/>
<path fill-rule="evenodd" clip-rule="evenodd" d="M106.779 21.4446H110.657V6.88185H106.779V21.4446Z" fill="white"/>
<path fill-rule="evenodd" clip-rule="evenodd" d="M108.698 5.22768C109.437 5.22768 109.992 4.94782 110.397 4.593C110.582 4.42308 110.767 4.16821 110.877 3.93333C111.172 3.34362 111.137 2.54902 110.877 1.94932C110.657 1.50954 110.137 0.979807 109.692 0.794899C109.542 0.734929 109.432 0.699946 109.247 0.654969C108.433 0.450071 107.548 0.749922 107.029 1.25467C106.584 1.71944 106.364 2.1992 106.329 2.90384C106.294 3.70344 106.664 4.40309 107.328 4.83288C107.698 5.09774 108.178 5.22768 108.698 5.22768Z" fill="white"/>
<path d="M47.2587 31.8593C47.7834 32.0243 48.1982 32.3041 48.4981 32.6939C48.7979 33.0837 48.9478 33.5635 48.9478 34.1382C48.9478 34.9478 48.633 35.5675 48.0083 36.0023C47.3786 36.4371 46.4641 36.6519 45.2647 36.6519H40.4971V27.4316H44.9998C46.1242 27.4316 46.9838 27.6465 47.5885 28.0762C48.1882 28.506 48.4931 29.0907 48.4931 29.8254C48.4931 30.2751 48.3831 30.6699 48.1682 31.0248C47.9533 31.3746 47.6535 31.6544 47.2687 31.8543L47.2587 31.8593ZM42.611 29.0408V31.2147H44.7299C45.2547 31.2147 45.6545 31.1247 45.9293 30.9398C46.1992 30.7549 46.3391 30.485 46.3391 30.1252C46.3391 29.7654 46.2042 29.4955 45.9293 29.3156C45.6595 29.1357 45.2597 29.0458 44.7299 29.0458H42.611V29.0408ZM45.0998 35.0477C45.6595 35.0477 46.0843 34.9578 46.3691 34.7729C46.654 34.588 46.7989 34.3031 46.7989 33.9183C46.7989 33.1537 46.2342 32.7739 45.0998 32.7739H42.611V35.0527H45.0998V35.0477ZM55.0298 36.8119C54.0753 36.8119 53.2107 36.607 52.4411 36.1922C51.6715 35.7774 51.0718 35.2127 50.637 34.488C50.2022 33.7634 49.9873 32.9488 49.9873 32.0442C49.9873 31.1397 50.2022 30.3251 50.637 29.6005C51.0718 28.8758 51.6715 28.3061 52.4411 27.8963C53.2107 27.4815 54.0703 27.2766 55.0298 27.2766C55.9843 27.2766 56.8489 27.4815 57.6085 27.8963C58.3731 28.3111 58.9728 28.8758 59.4126 29.6005C59.8524 30.3251 60.0723 31.1397 60.0723 32.0442C60.0723 32.9488 59.8524 33.7634 59.4126 34.488C58.9728 35.2127 58.3731 35.7824 57.6085 36.1922C56.8439 36.607 55.9843 36.8119 55.0298 36.8119ZM55.0298 34.9928C55.5745 34.9928 56.0643 34.8678 56.5041 34.618C56.9438 34.3681 57.2887 34.0183 57.5385 33.5735C57.7884 33.1237 57.9133 32.619 57.9133 32.0442C57.9133 31.4745 57.7884 30.9648 57.5385 30.515C57.2887 30.0652 56.9438 29.7204 56.5041 29.4705C56.0643 29.2207 55.5745 29.0957 55.0298 29.0957C54.4851 29.0957 53.9953 29.2207 53.5555 29.4705C53.1157 29.7204 52.7709 30.0702 52.521 30.515C52.2712 30.9648 52.1462 31.4695 52.1462 32.0442C52.1462 32.614 52.2712 33.1237 52.521 33.5735C52.7709 34.0233 53.1157 34.3681 53.5555 34.618C53.9953 34.8678 54.4851 34.9928 55.0298 34.9928ZM66.1442 36.8119C65.1897 36.8119 64.3251 36.607 63.5555 36.1922C62.7859 35.7774 62.1862 35.2127 61.7514 34.488C61.3166 33.7634 61.1017 32.9488 61.1017 32.0442C61.1017 31.1397 61.3166 30.3251 61.7514 29.6005C62.1862 28.8758 62.7859 28.3061 63.5555 27.8963C64.3251 27.4815 65.1847 27.2766 66.1442 27.2766C67.0987 27.2766 67.9633 27.4815 68.7229 27.8963C69.4875 28.3111 70.0872 28.8758 70.527 29.6005C70.9668 30.3251 71.1867 31.1397 71.1867 32.0442C71.1867 32.9488 70.9668 33.7634 70.527 34.488C70.0872 35.2127 69.4875 35.7824 68.7229 36.1922C67.9583 36.607 67.0987 36.8119 66.1442 36.8119ZM66.1442 34.9928C66.6889 34.9928 67.1787 34.8678 67.6185 34.618C68.0583 34.3681 68.4031 34.0183 68.653 33.5735C68.9028 33.1237 69.0278 32.619 69.0278 32.0442C69.0278 31.4745 68.9028 30.9648 68.653 30.515C68.4031 30.0652 68.0583 29.7204 67.6185 29.4705C67.1787 29.2207 66.6889 29.0957 66.1442 29.0957C65.5995 29.0957 65.1097 29.2207 64.67 29.4705C64.2302 29.7204 63.8854 30.0702 63.6355 30.515C63.3856 30.9648 63.2607 31.4695 63.2607 32.0442C63.2607 32.614 63.3856 33.1237 63.6355 33.5735C63.8854 34.0233 64.2302 34.3681 64.67 34.618C65.1097 34.8678 65.5995 34.9928 66.1442 34.9928ZM76.1542 33.0288L74.9148 34.3181V36.6469H72.7959V27.4266H74.9148V31.7344L78.9978 27.4266H81.3666L77.5485 31.5345L81.5915 36.6419H79.1027L76.1542 33.0188V33.0288ZM85.3696 36.8069C84.64 36.8069 83.9353 36.7069 83.2557 36.512C82.576 36.3171 82.0313 36.0572 81.6165 35.7424L82.3411 34.1382C82.7359 34.4281 83.2057 34.6629 83.7504 34.8379C84.2951 35.0128 84.8399 35.1027 85.3846 35.1027C85.9893 35.1027 86.4391 35.0128 86.7289 34.8329C87.0188 34.6529 87.1637 34.4131 87.1637 34.1132C87.1637 33.8933 87.0787 33.7134 86.9088 33.5685C86.7389 33.4236 86.519 33.3086 86.2492 33.2187C85.9793 33.1287 85.6195 33.0338 85.1647 32.9288C84.46 32.7639 83.8853 32.594 83.4406 32.4291C82.9908 32.2641 82.611 31.9943 82.2861 31.6245C81.9663 31.2546 81.8064 30.7649 81.8064 30.1502C81.8064 29.6155 81.9513 29.1307 82.2412 28.6959C82.531 28.2611 82.9658 27.9163 83.5505 27.6614C84.1352 27.4066 84.8499 27.2816 85.6894 27.2816C86.2791 27.2816 86.8538 27.3516 87.4136 27.4915C87.9733 27.6315 88.468 27.8364 88.8878 28.0962L88.2282 29.7154C87.3786 29.2307 86.524 28.9908 85.6744 28.9908C85.0797 28.9908 84.635 29.0857 84.3501 29.2806C84.0653 29.4755 83.9203 29.7304 83.9203 30.0452C83.9203 30.3601 84.0852 30.595 84.4151 30.7499C84.7449 30.9048 85.2447 31.0547 85.9243 31.2047C86.629 31.3696 87.2037 31.5395 87.6485 31.7044C88.0982 31.8693 88.478 32.1342 88.8029 32.494C89.1227 32.8538 89.2826 33.3436 89.2826 33.9583C89.2826 34.483 89.1377 34.9678 88.8429 35.4026C88.548 35.8373 88.1082 36.1822 87.5185 36.437C86.9288 36.6919 86.2142 36.8169 85.3696 36.8169V36.8069Z" fill="white"/>
</svg>
