<svg width="129" height="32" viewBox="0 0 129 32" fill="none" xmlns="http://www.w3.org/2000/svg">
<path fill-rule="evenodd" clip-rule="evenodd" d="M28.7678 31.0383L34.0251 28.6445L21.6063 1.63799L18.3979 8.47956L28.7678 31.0383Z" fill="white"/>
<path fill-rule="evenodd" clip-rule="evenodd" d="M2.62598 24.3316C4.9748 22.6874 7.69844 21.493 10.7169 20.7134L20.1522 0.00379944H13.8504L2.62598 24.3316Z" fill="white"/>
<path fill-rule="evenodd" clip-rule="evenodd" d="M0.312012 28.8793L5.7193 31.3781C7.95818 29.2542 10.9017 28.0098 13.9602 27.545C17.9882 26.9503 22.316 27.635 25.7443 29.3591L22.5009 22.3526C18.248 21.3831 14.5549 21.603 11.5364 22.3326C5.45943 23.8069 2.326 26.8604 0.312012 28.8793Z" fill="white"/>
<path fill-rule="evenodd" clip-rule="evenodd" d="M13.5503 18.9343C13.5503 19.469 14.0001 19.8938 14.4099 19.8938C14.7447 19.8938 15.0445 19.8239 15.3794 19.8239C16.4239 19.8239 17.0186 19.7089 18.2529 19.8788L19.7472 20.0638C20.2669 20.0638 20.7167 19.7239 20.9416 19.3091C21.2764 18.5245 20.7567 17.8599 20.3469 16.9453L18.5178 12.9423C18.4079 12.7474 18.4079 12.6824 18.2929 12.5175C17.7682 11.8129 16.6537 11.8079 16.204 12.9023L13.7052 18.4046C13.6303 18.5545 13.5553 18.7244 13.5553 18.9393L13.5503 18.9343Z" fill="white"/>
<path fill-rule="evenodd" clip-rule="evenodd" d="M75.0844 16.3806C75.0844 15.7109 75.1594 15.1912 75.3793 14.5815C75.4542 14.3166 75.5642 14.0868 75.7141 13.8669C76.7486 12.1327 79.0374 11.498 80.8865 12.3676C82.4007 13.0972 83.2903 14.6215 83.2903 16.3406C83.2903 18.1197 82.4757 19.3891 81.0364 20.2337C79.967 20.8434 78.3778 20.8134 77.2683 20.2687C77.0084 20.1437 76.8635 20.0588 76.6386 19.8789L76.3788 19.649C75.934 19.2442 75.5642 18.6795 75.3443 18.1147C75.1944 17.61 75.0844 16.9153 75.0844 16.3706V16.3806ZM78.2978 24.0718C80.0719 24.0718 81.4362 23.7819 82.8405 22.8374L83.2853 22.5125V23.632H87.1634V9.06927H83.2853V10.2237C82.9904 10.0138 82.9505 9.93383 82.4357 9.609C81.4362 9.01929 80.0719 8.62949 78.8525 8.62949H78.1879C76.8185 8.62949 75.1594 9.31414 74.1999 10.1437C74.1249 10.2237 74.0499 10.2687 73.98 10.3486L73.5002 10.7884C73.2403 11.0433 72.6856 11.7679 72.5007 12.0728C71.801 13.2272 71.3563 14.5565 71.3563 15.9408C71.3563 16.1507 71.3213 16.1957 71.3213 16.3806L71.3563 17.2452C71.5062 18.2946 71.5062 18.4596 71.871 19.4641C72.1659 20.2037 72.7956 21.2082 73.3103 21.7129L73.6401 22.0478C74.3448 22.7074 74.4547 22.8224 75.3393 23.3171C75.4142 23.3521 75.4142 23.3621 75.4892 23.3871C75.894 23.582 76.2288 23.7019 76.6736 23.8369C77.0784 23.9668 77.7431 24.0768 78.2978 24.0768V24.0718Z" fill="white"/>
<path fill-rule="evenodd" clip-rule="evenodd" d="M47.8881 20.6785C47.0735 20.6785 46.5188 20.6785 45.7842 20.2986C45.3394 20.0688 45.3044 20.0188 44.9346 19.7239C44.7497 19.564 44.6048 19.4241 44.4548 19.2292C44.3799 19.1392 44.3049 19.0443 44.2699 18.9493C43.3104 17.52 43.3454 15.1262 44.3049 13.662C44.8596 12.8524 45.8591 12.1977 46.8536 12.0478C47.7782 11.9078 48.5878 11.9928 49.4423 12.4176C50.7717 13.0773 51.7712 14.5215 51.7712 16.2757C51.7712 17.64 51.3664 18.6195 50.6267 19.3591C49.9221 20.0738 49.0026 20.6735 47.8931 20.6735L47.8881 20.6785ZM39.8321 15.9408C39.8321 17.7749 39.9421 18.7494 40.7567 20.2936C41.2364 21.2032 41.8261 21.7979 42.5658 22.4676C43.6352 23.4121 45.2994 24.0718 46.7387 24.0718C47.9931 24.0718 48.7327 23.9918 49.8071 23.607C50.177 23.482 50.5468 23.3071 50.8416 23.1222C51.3964 22.8124 51.3614 22.7974 51.7662 22.5125V23.632H55.6442V9.06927H51.7662V10.1887L50.8816 9.58901C49.4024 8.78941 48.4428 8.62949 46.6687 8.62949C45.8191 8.62949 44.5998 8.95432 43.8601 9.36912C43.1955 9.74893 43.1205 9.83388 42.5658 10.2587L41.4563 11.3881C41.0515 11.9228 40.7567 12.3926 40.4568 13.0373C40.122 13.7769 39.8271 14.8864 39.8271 15.9458L39.8321 15.9408Z" fill="white"/>
<path fill-rule="evenodd" clip-rule="evenodd" d="M115.944 28.6045H120.232L128.543 9.33913C128.618 9.24417 128.653 9.12923 128.693 9.02928H124.37C124.37 9.15422 124.185 9.48905 124.15 9.61898C124.04 9.81389 123.965 10.0088 123.89 10.1837L121.376 15.9558C121.226 16.3506 121.082 16.7054 120.897 17.1102C120.822 17.3051 120.747 17.49 120.637 17.6849C120.562 17.8349 120.452 18.1247 120.417 18.2747L119.642 16.5405C119.532 16.3456 119.457 16.1707 119.382 15.9658C119.232 15.561 119.088 15.2162 118.938 14.8114C118.308 13.3071 117.643 11.7379 117.019 10.2137L116.539 9.03428H112.251C112.251 9.15922 113.21 11.3531 113.285 11.503C113.62 12.3226 113.95 13.1172 114.32 13.9418C115.574 16.8654 116.834 19.8788 118.088 22.7874C118.308 23.2472 118.308 23.0673 118.013 23.6969L116.204 27.9898C116.094 28.1747 115.984 28.4296 115.944 28.6145V28.6045Z" fill="white"/>
<path fill-rule="evenodd" clip-rule="evenodd" d="M89.1226 23.627H93.7053L96.8837 19.0193C96.9187 19.1592 97.6983 20.2537 97.8432 20.4536C98.5478 21.493 99.3224 22.5775 100.022 23.627H104.64L99.7272 16.5155C99.8022 16.4556 99.9471 16.2007 100.022 16.0758L104.01 9.96881C104.23 9.65397 104.415 9.34412 104.64 9.02428H100.022L99.6173 9.62398C99.5074 9.83388 99.3574 10.0288 99.2475 10.2387L97.0686 13.602C96.9936 13.7069 96.9187 13.8419 96.8487 13.9018L96.0741 12.6775C95.9991 12.5825 95.9641 12.5025 95.8892 12.3876L94.7048 10.5535C94.6298 10.4386 94.5548 10.3586 94.4849 10.2437C94.3749 10.0338 94.265 9.86386 94.1151 9.64397C93.9651 9.42408 93.8552 9.24917 93.7103 9.01929H89.1276C89.3474 9.44407 91.7512 13.0873 92.1211 13.607L93.9301 16.3756C94.0401 16.5605 94.0051 16.5455 93.7802 16.8404L93.1505 17.7399C92.5958 18.6195 91.8962 19.564 91.3015 20.4436C90.8967 21.0433 89.2675 23.3171 89.1226 23.617V23.627Z" fill="white"/>
<path fill-rule="evenodd" clip-rule="evenodd" d="M57.6083 13.3321C57.6083 14.3966 57.9431 15.4211 58.6778 16.1257C58.9726 16.4006 59.3824 16.7054 59.7123 16.8903C59.9321 17.0053 60.0821 17.0852 60.3419 17.1902C61.8962 17.7799 64.6298 18.0648 65.4794 18.4596C67.0686 19.2092 66.184 20.9533 64.26 20.9533C63.1905 20.9533 62.3409 20.8983 61.6013 20.2037L61.5663 20.1687C61.5663 20.1687 61.5663 20.1587 61.5663 20.1487C61.3065 19.8738 61.0516 19.3991 61.0516 18.9843C60.8667 18.9843 57.2485 19.7439 57.1335 19.7689C57.1685 20.0488 57.2835 20.5685 57.3534 20.8084C57.7233 21.7429 58.313 22.4476 59.1625 22.9673C60.197 23.577 61.7512 24.0667 63.3754 24.0667C64.7447 24.0667 65.8492 23.9968 67.0686 23.512C67.9531 23.1522 68.6228 22.6924 69.1725 22.0078C69.4674 21.6829 69.6523 21.2831 69.8022 20.8434C69.9871 20.3686 70.0621 19.8838 70.0971 19.2841L70.0221 18.4845C69.9871 18.2197 69.9121 17.9798 69.8372 17.7599C69.6523 17.3201 69.4324 16.9503 69.1325 16.6255C68.0981 15.4461 66.9136 15.2412 65.4744 14.9013C64.9596 14.7764 62.9606 14.3816 62.5208 14.2417C62.116 14.1017 61.6363 13.8868 61.5213 13.4221C61.2265 12.4176 62.1111 11.678 63.2955 11.678C64.255 11.678 65.3294 11.8978 65.8842 12.7974C66.0341 13.0073 66.179 13.3521 66.179 13.677C66.4389 13.677 66.8787 13.552 67.1035 13.507L69.8722 12.9623C69.8722 12.6974 69.6873 12.1977 69.6123 11.9828C69.4624 11.663 69.3524 11.4381 69.1675 11.1532C68.0581 9.52403 65.8792 8.62448 63.9601 8.62448C62.8157 8.62448 62.0761 8.62448 61.0066 8.9843C59.1975 9.584 57.6083 11.1182 57.6083 13.3271V13.3321Z" fill="white"/>
<path fill-rule="evenodd" clip-rule="evenodd" d="M106.784 23.627H110.662V9.06427H106.784V23.627Z" fill="white"/>
<path fill-rule="evenodd" clip-rule="evenodd" d="M108.703 7.41009C109.442 7.41009 109.997 7.13023 110.402 6.77541C110.587 6.60549 110.772 6.35062 110.882 6.11574C111.176 5.52603 111.141 4.73143 110.882 4.13173C110.662 3.69195 110.142 3.16222 109.697 2.97731C109.547 2.91734 109.437 2.88236 109.252 2.83738C108.438 2.63248 107.553 2.93233 107.033 3.43708C106.589 3.90185 106.369 4.38161 106.334 5.08625C106.299 5.88585 106.669 6.5855 107.333 7.01529C107.703 7.28016 108.183 7.41009 108.698 7.41009H108.703Z" fill="white"/>
</svg>
