<svg width="20" height="18" viewBox="0 0 20 18" fill="none" xmlns="http://www.w3.org/2000/svg">
<g clip-path="url(#clip0_1610_27648)">
<path d="M10 16.9999C7.953 15.1469 4.86 14.8199 2.444 16.0189C1.779 16.3479 1 15.8989 1 15.1569V3.84393C1 3.23693 1.275 2.65493 1.756 2.28493C4.245 0.367926 7.753 0.595926 10 2.96893C12.247 0.595926 15.755 0.367926 18.244 2.28593C18.725 2.65593 19 3.23793 19 3.84393V15.1559C19 15.8979 18.221 16.3479 17.556 16.0179C15.14 14.8199 12.047 15.1469 10 16.9999V16.9999Z" stroke="#475569" stroke-width="2" stroke-linecap="round" stroke-linejoin="round"/>
<path d="M10 16.9988V2.96875" stroke="#475569" stroke-width="2" stroke-linecap="round" stroke-linejoin="round"/>
</g>
<defs>
<clipPath id="clip0_1610_27648">
<rect width="20" height="18" fill="white"/>
</clipPath>
</defs>
</svg>
