<svg width="22" height="22" viewBox="0 0 22 22" fill="none" xmlns="http://www.w3.org/2000/svg">
<g clip-path="url(#clip0_3512_55300)">
<path d="M7.49476 15.9088L5.08984 13.5039" stroke="#475569" stroke-width="2" stroke-linecap="round" stroke-linejoin="round"/>
<path d="M1.79979 18.6006L2.39938 19.2002C2.49443 19.2953 2.60726 19.3707 2.73145 19.4221C2.85563 19.4735 2.98873 19.5 3.12314 19.5C3.25756 19.5 3.39066 19.4735 3.51484 19.4221C3.63902 19.3707 3.75186 19.2953 3.8469 19.2002L5.90908 17.138C7.40213 15.645 9.42714 14.8062 11.5386 14.8062H12.8469C14.6114 14.8062 16.3037 14.1052 17.5513 12.8575C18.799 11.6098 19.5 9.91761 19.5 8.15311V8.15311C19.5 7.27941 19.3279 6.41427 18.9936 5.60708C18.6592 4.79988 18.1692 4.06645 17.5514 3.44865C16.9336 2.83085 16.2001 2.34079 15.3929 2.00644C14.5858 1.67209 13.7206 1.5 12.8469 1.5V1.5C11.9732 1.5 11.1081 1.67208 10.3009 2.00643C9.49369 2.34078 8.76025 2.83084 8.14245 3.44864C7.52466 4.06643 7.03459 4.79987 6.70024 5.60706C6.36589 6.41425 6.1938 7.27939 6.1938 8.15309V9.46138C6.19381 11.5729 5.35504 13.5979 3.862 15.0909L1.79979 17.1531C1.70475 17.2481 1.62935 17.361 1.57791 17.4852C1.52647 17.6093 1.5 17.7424 1.5 17.8769C1.5 18.0113 1.52647 18.1444 1.57791 18.2686C1.62935 18.3927 1.70475 18.5056 1.79979 18.6006V18.6006Z" stroke="#475569" stroke-width="2" stroke-linecap="round" stroke-linejoin="round"/>
<path d="M10.465 14.8791L6.12109 10.5352" stroke="#475569" stroke-width="2" stroke-linecap="round" stroke-linejoin="round"/>
<path d="M18.5 20.5C19.6046 20.5 20.5 19.6046 20.5 18.5C20.5 17.3954 19.6046 16.5 18.5 16.5C17.3954 16.5 16.5 17.3954 16.5 18.5C16.5 19.6046 17.3954 20.5 18.5 20.5Z" stroke="#475569" stroke-width="2" stroke-linecap="round" stroke-linejoin="round"/>
</g>
<defs>
<clipPath id="clip0_3512_55300">
<rect width="22" height="22" fill="white"/>
</clipPath>
</defs>
</svg>
