<svg width="22" height="18" viewBox="0 0 22 18" fill="none" xmlns="http://www.w3.org/2000/svg">
<g clip-path="url(#clip0_1610_27748)">
<path d="M5 7H8" stroke="#475569" stroke-width="2" stroke-linecap="round" stroke-linejoin="round"/>
<path d="M6.5 5.5V8.5" stroke="#475569" stroke-width="2" stroke-linecap="round" stroke-linejoin="round"/>
<path d="M18.6495 2.37613C13.715 0.541291 8.28543 0.541291 3.35096 2.37613C2.92384 2.5472 2.54285 2.81617 2.23866 3.16137C1.93447 3.50658 1.71558 3.91838 1.59961 4.36364C0.772476 7.93295 0.801469 11.6473 1.68422 15.2033C1.77227 15.5202 1.93703 15.8105 2.16394 16.0486C2.39085 16.2867 2.67292 16.4653 2.98522 16.5685L4.12422 16.948C4.3654 17.0294 4.6286 17.0154 4.85976 16.9088C5.09091 16.8022 5.27247 16.6111 5.36715 16.3748C5.76762 15.3736 6.41495 13.7552 6.76861 12.8712C6.84273 12.6861 6.97075 12.5275 7.13608 12.4159C7.3014 12.3044 7.49641 12.2451 7.69584 12.2457H14.3044C14.5042 12.2457 14.6995 12.3056 14.865 12.4176C15.0305 12.5297 15.1587 12.6888 15.2329 12.8743L16.6313 16.3706C16.726 16.6074 16.9076 16.7991 17.139 16.9064C17.3704 17.0137 17.6341 17.0286 17.876 16.9479L19.0155 16.568C19.3277 16.4648 19.6097 16.2863 19.8366 16.0482C20.0635 15.8101 20.2282 15.5198 20.3163 15.2029C21.1989 11.6471 21.2279 7.93286 20.4009 4.36368C20.2849 3.91842 20.066 3.50661 19.7618 3.16139C19.4576 2.81618 19.0766 2.54721 18.6495 2.37613V2.37613Z" stroke="#475569" stroke-width="2" stroke-linecap="round" stroke-linejoin="round"/>
<path d="M13.35 6.99944C13.35 7.03403 13.3397 7.06784 13.3204 7.09658C13.3012 7.12533 13.2738 7.14772 13.2419 7.16094C13.2099 7.17416 13.1747 7.1776 13.1408 7.17085C13.1069 7.16409 13.0757 7.14742 13.0513 7.12296C13.0268 7.0985 13.0101 7.06734 13.0034 7.03341C12.9966 6.99949 13.0001 6.96432 13.0133 6.93235C13.0265 6.90038 13.0489 6.87305 13.0776 6.8538C13.1064 6.83456 13.1402 6.82426 13.1748 6.82422C13.1978 6.82419 13.2206 6.8287 13.2419 6.8375C13.2631 6.84629 13.2825 6.8592 13.2987 6.87548C13.315 6.89175 13.3279 6.91108 13.3367 6.93235C13.3455 6.95362 13.35 6.97642 13.35 6.99944Z" stroke="#475569" stroke-width="2" stroke-linecap="round" stroke-linejoin="round"/>
<path d="M17.0004 6.99944C17.0003 7.03403 16.9901 7.06784 16.9708 7.09658C16.9516 7.12533 16.9242 7.14772 16.8923 7.16094C16.8603 7.17416 16.8251 7.1776 16.7912 7.17085C16.7573 7.16409 16.7261 7.14742 16.7016 7.12296C16.6772 7.0985 16.6605 7.06734 16.6538 7.03341C16.647 6.99949 16.6505 6.96432 16.6637 6.93235C16.6769 6.90038 16.6993 6.87305 16.728 6.8538C16.7568 6.83456 16.7906 6.82426 16.8252 6.82422C16.8482 6.82419 16.871 6.8287 16.8923 6.8375C16.9135 6.84629 16.9329 6.8592 16.9491 6.87548C16.9654 6.89175 16.9783 6.91108 16.9871 6.93235C16.9959 6.95362 17.0004 6.97642 17.0004 6.99944Z" stroke="#475569" stroke-width="2" stroke-linecap="round" stroke-linejoin="round"/>
<path d="M14.9994 8.64844C15.034 8.64848 15.0678 8.65878 15.0966 8.67802C15.1253 8.69727 15.1477 8.7246 15.1609 8.75657C15.1742 8.78854 15.1776 8.82371 15.1708 8.85763C15.1641 8.89156 15.1474 8.92272 15.123 8.94718C15.0985 8.97164 15.0673 8.98831 15.0334 8.99506C14.9995 9.00182 14.9643 8.99838 14.9324 8.98516C14.9004 8.97194 14.873 8.94955 14.8538 8.9208C14.8346 8.89206 14.8243 8.85825 14.8242 8.82366C14.8242 8.80064 14.8287 8.77784 14.8375 8.75657C14.8463 8.7353 14.8592 8.71597 14.8755 8.69969C14.8918 8.68342 14.9111 8.67051 14.9324 8.66172C14.9536 8.65292 14.9764 8.64841 14.9994 8.64844Z" stroke="#475569" stroke-width="2" stroke-linecap="round" stroke-linejoin="round"/>
<path d="M14.9994 5C15.034 5.00004 15.0678 5.01034 15.0966 5.02959C15.1253 5.04883 15.1477 5.07616 15.1609 5.10813C15.1742 5.1401 15.1776 5.17527 15.1708 5.20919C15.1641 5.24312 15.1474 5.27428 15.123 5.29874C15.0985 5.3232 15.0673 5.33987 15.0334 5.34663C14.9995 5.35339 14.9643 5.34994 14.9324 5.33672C14.9004 5.3235 14.873 5.30111 14.8538 5.27236C14.8346 5.24362 14.8243 5.20981 14.8242 5.17522C14.8242 5.1522 14.8287 5.1294 14.8375 5.10813C14.8463 5.08686 14.8592 5.06753 14.8755 5.05126C14.8918 5.03498 14.9111 5.02207 14.9324 5.01328C14.9536 5.00448 14.9764 4.99997 14.9994 5" stroke="#475569" stroke-width="2" stroke-linecap="round" stroke-linejoin="round"/>
</g>
<defs>
<clipPath id="clip0_1610_27748">
<rect width="22" height="18" fill="white"/>
</clipPath>
</defs>
</svg>
