<svg width="20" height="20" viewBox="0 0 20 20" fill="none" xmlns="http://www.w3.org/2000/svg">
<path d="M8.44231 7.4939L1.67231 14.2639H1.67231C0.775897 15.1618 0.775897 16.616 1.67231 17.5139L2.48431 18.3259V18.3259C3.38221 19.2223 4.83641 19.2223 5.73431 18.3259L12.5043 11.5559V11.5559C12.856 11.2044 13.3121 10.9764 13.8043 10.9059L15.1313 10.7169V10.7169C15.6235 10.6465 16.0796 10.4184 16.4313 10.0669L18.3313 8.1669V8.1669C19.2271 7.26912 19.2271 5.81568 18.3313 4.9179L15.0813 1.6679V1.6679C14.1835 0.772157 12.7301 0.772157 11.8323 1.6679L9.93231 3.5679V3.5679C9.58082 3.91959 9.35276 4.3757 9.28231 4.8679L9.09231 6.1989H9.09231C9.02083 6.68933 8.79284 7.14354 8.44231 7.4939V7.4939Z" stroke="#475569" stroke-width="2" stroke-linecap="round" stroke-linejoin="round"/>
<path d="M9 11L10.5 9.5" stroke="#475569" stroke-width="2" stroke-linecap="round" stroke-linejoin="round"/>
<path d="M16.6992 9.80078L10.1992 3.30078" stroke="#475569" stroke-width="2" stroke-linecap="round" stroke-linejoin="round"/>
</svg>
